<svg id="Capa_1" data-name="Capa 1" xmlns="http://www.w3.org/2000/svg" viewBox="0 0 457.03 439.35"><title>thumbs-up-hand-symbol</title><path d="M432.22,251.89q15.19-17.4,15.2-41.16,0-21.55-15.73-37.3t-37.3-15.75H317.87a69.22,69.22,0,0,1,2.21-6.63,45.8,45.8,0,0,1,3-6.08c1.28-2.21,2.21-3.87,2.76-5q5-9.39,7.6-15.47A112.26,112.26,0,0,0,338.72,108a85.74,85.74,0,0,0,2.63-21c0-4.42-.06-8-.14-10.78a120.37,120.37,0,0,0-1.38-12.43,69.17,69.17,0,0,0-3.32-13.81,64.12,64.12,0,0,0-6.63-12.43,38.66,38.66,0,0,0-11.05-11.19,60.64,60.64,0,0,0-16.58-7.19,82.67,82.67,0,0,0-22.8-2.9A17,17,0,0,0,267,21.48a48,48,0,0,0-9.39,13.81,83,83,0,0,0-5.4,14.37q-1.51,6.08-3.44,16.85-2.5,11.61-3.74,16.72a88.83,88.83,0,0,1-4.83,13.39,42.38,42.38,0,0,1-8.57,13.27q-9.12,9.1-27.9,33.15-13.55,17.67-27.91,33.42t-21,16.31A18.09,18.09,0,0,0,143,198.43a16.65,16.65,0,0,0-5,12V387.53a16.52,16.52,0,0,0,5.25,12.29,18.24,18.24,0,0,0,12.43,5.4q9.66.27,43.65,12.15,21.27,7.19,33.28,10.91t33.56,8A205.56,205.56,0,0,0,306,440.58h35.64Q378.34,440,396,419q16-19.06,13.54-50a53.79,53.79,0,0,0,14.91-26,56.77,56.77,0,0,0,0-32.32,57.37,57.37,0,0,0,11.88-37.85Q436.38,264.06,432.22,251.89Z" transform="translate(2.11 -8.73)" style="fill:none;stroke:#000;stroke-miterlimit:10;stroke-width:15px"/><path d="M102.64,193.05H23.08a17,17,0,0,0-12.44,5.25,17,17,0,0,0-5.25,12.43V387.55A17,17,0,0,0,10.64,400a17.05,17.05,0,0,0,12.44,5.24h79.56a17.91,17.91,0,0,0,17.68-17.67V210.73a17.93,17.93,0,0,0-17.68-17.68ZM70.87,364.75a17.84,17.84,0,0,1-25,0,17.84,17.84,0,0,1,0-25,17.48,17.48,0,0,1,25,0,17.51,17.51,0,0,1,0,25Z" transform="translate(2.11 -8.73)" style="fill:none;stroke:#000;stroke-miterlimit:10;stroke-width:15px"/></svg>